<svg width="14" height="15" viewBox="0 0 14 15" fill="none" xmlns="http://www.w3.org/2000/svg">
<path d="M0.10376 2.85241C0.10376 2.33613 0.308853 1.84099 0.673921 1.47592C1.03899 1.11085 1.53413 0.905762 2.05041 0.905762H11.7837C12.3 0.905762 12.7951 1.11085 13.1602 1.47592C13.5252 1.84099 13.7303 2.33613 13.7303 2.85241V12.5857C13.7303 13.102 13.5252 13.5971 13.1602 13.9622C12.7951 14.3272 12.3 14.5323 11.7837 14.5323H2.05041C1.53413 14.5323 1.03899 14.3272 0.673921 13.9622C0.308853 13.5971 0.10376 13.102 0.10376 12.5857V2.85241ZM2.05041 1.87909C1.79227 1.87909 1.5447 1.98163 1.36217 2.16417C1.17963 2.3467 1.07709 2.59427 1.07709 2.85241V12.5857C1.07709 12.8438 1.17963 13.0914 1.36217 13.2739C1.5447 13.4565 1.79227 13.559 2.05041 13.559H11.7837C12.0418 13.559 12.2894 13.4565 12.4719 13.2739C12.6545 13.0914 12.757 12.8438 12.757 12.5857V2.85241C12.757 2.59427 12.6545 2.3467 12.4719 2.16417C12.2894 1.98163 12.0418 1.87909 11.7837 1.87909H2.05041ZM6.91705 3.82574C7.04612 3.82574 7.1699 3.87701 7.26117 3.96828C7.35244 4.05955 7.40371 4.18333 7.40371 4.3124V7.23238H10.3237C10.4528 7.23238 10.5765 7.28366 10.6678 7.37492C10.7591 7.46619 10.8104 7.58998 10.8104 7.71905C10.8104 7.84812 10.7591 7.9719 10.6678 8.06317C10.5765 8.15444 10.4528 8.20571 10.3237 8.20571H7.40371V11.1257C7.40371 11.2548 7.35244 11.3785 7.26117 11.4698C7.1699 11.5611 7.04612 11.6124 6.91705 11.6124C6.78797 11.6124 6.66419 11.5611 6.57292 11.4698C6.48166 11.3785 6.43038 11.2548 6.43038 11.1257V8.20571H3.5104C3.38133 8.20571 3.25755 8.15444 3.16628 8.06317C3.07501 7.9719 3.02374 7.84812 3.02374 7.71905C3.02374 7.58998 3.07501 7.46619 3.16628 7.37492C3.25755 7.28366 3.38133 7.23238 3.5104 7.23238H6.43038V4.3124C6.43038 4.18333 6.48166 4.05955 6.57292 3.96828C6.66419 3.87701 6.78797 3.82574 6.91705 3.82574Z" fill="#BDBDBD"/>
</svg>
