<svg width="21" height="20" viewBox="0 0 21 20" fill="none" xmlns="http://www.w3.org/2000/svg">
<g clip-path="url(#clip0_5_3900)">
<path d="M10.413 18.8538C10.7513 18.846 11.0759 18.7188 11.3295 18.4947C11.583 18.2707 11.7492 17.9641 11.7985 17.6294H8.97388C9.02461 17.9732 9.19852 18.287 9.46325 18.5122C9.72798 18.7374 10.0655 18.8588 10.413 18.8538Z" fill="#F68903" fill-opacity="0.2"/>
<path d="M18.3876 15.5515L18.205 15.3904C17.687 14.9289 17.2337 14.3997 16.8571 13.817C16.4459 13.0129 16.1995 12.1347 16.1322 11.2341V8.58129C16.13 8.25907 16.1013 7.93757 16.0463 7.62006C15.1367 7.4331 14.3196 6.93755 13.7334 6.2173C13.1472 5.49706 12.828 4.59638 12.8297 3.66775V3.32944C12.269 3.05352 11.6666 2.87208 11.0468 2.79244V2.11582C11.0468 1.92569 10.9713 1.74334 10.8368 1.6089C10.7024 1.47446 10.5201 1.39893 10.3299 1.39893C10.1398 1.39893 9.95744 1.47446 9.823 1.6089C9.68855 1.74334 9.61302 1.92569 9.61302 2.11582V2.81929C8.22527 3.01505 6.95518 3.70627 6.03726 4.76534C5.11934 5.8244 4.61556 7.1798 4.61893 8.58129V11.2341C4.55167 12.1347 4.3052 13.0129 3.89398 13.817C3.52392 14.3983 3.07784 14.9274 2.56759 15.3904L2.38501 15.5515V17.0659H18.3876V15.5515Z" fill="#F68903" fill-opacity="0.2"/>
<path d="M16.8566 6.35242C18.3395 6.35242 19.5416 5.1503 19.5416 3.66742C19.5416 2.18454 18.3395 0.982422 16.8566 0.982422C15.3737 0.982422 14.1716 2.18454 14.1716 3.66742C14.1716 5.1503 15.3737 6.35242 16.8566 6.35242Z" fill="#F68903"/>
</g>
<defs>
<clipPath id="clip0_5_3900">
<rect width="19.332" height="19.332" fill="white" transform="translate(0.746826 0.445801)"/>
</clipPath>
</defs>
</svg>
